<?xml version="1.0" encoding="UTF-8"?>
<!DOCTYPE svg PUBLIC "-//W3C//DTD SVG 1.1//EN" "http://www.w3.org/Graphics/SVG/1.1/DTD/svg11.dtd">
<!-- Creator: CorelDRAW 2021 (64-Bit) -->
<svg xmlns="http://www.w3.org/2000/svg" xml:space="preserve" width="13.3333in" height="13.3333in" version="1.1" style="shape-rendering:geometricPrecision; text-rendering:geometricPrecision; image-rendering:optimizeQuality; fill-rule:evenodd; clip-rule:evenodd"
viewBox="0 0 13333.33 13333.33"
 xmlns:xlink="http://www.w3.org/1999/xlink"
 xmlns:xodm="http://www.corel.com/coreldraw/odm/2003">
 <defs>
  <style type="text/css">
   <![CDATA[
    .str0 {stroke:#F2F2F2;stroke-width:6.67;stroke-linecap:round;stroke-linejoin:round;stroke-miterlimit:2.61313}
    .str1 {stroke:black;stroke-width:3;stroke-linecap:round;stroke-linejoin:round;stroke-miterlimit:2.61313}
    .fil5 {fill:none}
    .fil2 {fill:none;fill-rule:nonzero}
    .fil0 {fill:black}
    .fil4 {fill:#FC0204}
    .fil3 {fill:#FC0204;fill-rule:nonzero}
    .fil1 {fill:white;fill-rule:nonzero}
   ]]>
  </style>
   <clipPath id="id0" style="clip-rule:nonzero">
    <path d="M10530.87 9198.98c154.76,387.9 727.98,588.93 1008.35,601.46l0 187.96c-256.87,-18.8 -1018.19,-28.19 -1434.83,-28.19 -535.7,0 -1035.77,9.39 -1302.05,28.19l0 -187.96c239.65,-9.39 261.74,-39.17 363.55,-87.71 101.8,-48.55 153.5,-136.27 153.5,-261.58 0,-106.51 -34.58,-254.34 -109.65,-440.14l-1636.58 -4049.74 -270.72 704.02 -185.72 -75.99 904.45 -2300.1 151.93 0 2357.78 5909.78z"/>
   </clipPath>
     <clipPath id="id1">
      <path d="M8981.9 8447.22l-595.19 -1472.81 1256.65 0 587.59 1472.81 -1249.05 0z"/>
     </clipPath>
     <clipPath id="id2">
      <path d="M10530.87 9198.98c154.76,387.9 727.98,588.93 1008.35,601.46l0 187.96c-256.87,-18.8 -1018.19,-28.19 -1434.83,-28.19 -535.7,0 -1035.77,9.39 -1302.05,28.19l0 -187.96c239.65,-9.39 261.74,-39.17 363.55,-87.71 101.8,-48.55 153.5,-136.27 153.5,-261.58 0,-106.51 -34.58,-254.34 -109.65,-440.14l-1636.58 -4049.74 -270.72 704.02 -185.72 -75.99 904.45 -2300.1 151.93 0 2357.78 5909.78z"/>
     </clipPath>
     <clipPath id="id3">
      <path d="M8981.9 8447.22l-595.19 -1472.81 1256.65 0 587.59 1472.81 -1249.05 0z"/>
     </clipPath>
     <clipPath id="id4">
      <path d="M10530.87 9198.98c154.76,387.9 727.98,588.93 1008.35,601.46l0 187.96c-256.87,-18.8 -1018.19,-28.19 -1434.83,-28.19 -535.7,0 -1035.77,9.39 -1302.05,28.19l0 -187.96c239.65,-9.39 261.74,-39.17 363.55,-87.71 101.8,-48.55 153.5,-136.27 153.5,-261.58 0,-106.51 -34.58,-254.34 -109.65,-440.14l-1636.58 -4049.74 -270.72 704.02 -185.72 -75.99 904.45 -2300.1 151.93 0 2357.78 5909.78z"/>
     </clipPath>
   <clipPath id="id5">
    <path d="M4966.94 9912.19l1.9 75.9c2668.97,591.33 1977.01,-2976 3079.73,-2672.55l0.99 -121.35c-2679.63,-424.96 -1854.73,2553.63 -3082.62,2718z"/>
   </clipPath>
     <clipPath id="id6">
      <path d="M6117.22 9947.85c1262.23,-505.91 1054.34,-2650.06 1804.87,-2650.06l0 -121.53c-9.2,-1.11 -18.01,-1.85 -27.15,-2.9l-637.16 0c-1279.25,179.89 -1323.45,1518.58 -1703.91,2258.13l0 516.35 563.35 0z"/>
     </clipPath>
     <clipPath id="id7">
      <path d="M4966.94 9912.19l1.9 75.9c2668.97,591.33 1977.01,-2976 3079.73,-2672.55l0.99 -121.35c-2679.63,-424.96 -1854.73,2553.63 -3082.62,2718z"/>
     </clipPath>
     <clipPath id="id8">
      <path d="M6117.22 9947.85c1262.23,-505.91 1054.34,-2650.06 1804.87,-2650.06l0 -121.53c-9.2,-1.11 -18.01,-1.85 -27.15,-2.9l-637.16 0c-1279.25,179.89 -1323.45,1518.58 -1703.91,2258.13l0 516.35 563.35 0z"/>
     </clipPath>
     <clipPath id="id9">
      <path d="M4966.94 9912.19l1.9 75.9c2668.97,591.33 1977.01,-2976 3079.73,-2672.55l0.99 -121.35c-2679.63,-424.96 -1854.73,2553.63 -3082.62,2718z"/>
     </clipPath>
 </defs>
 <g id="Layer_x0020_1">
  <metadata id="CorelCorpID_0Corel-Layer"/>
  <rect class="fil0 str0" x="-0.02" y="-0" width="13333.33" height="13333.33"/>
  <path class="fil1" d="M3455.15 9031.26c0,240.48 25.48,414.07 74.85,522.36 49.37,109.89 140.15,184.74 270.74,224.55 130.59,39.81 337.62,65.3 619.5,74.85l0 191.11c-329.66,-19.11 -797.87,-28.67 -1403.04,-28.67 -547.84,0 -955.53,9.56 -1223.08,28.67l0 -191.11c230.92,-9.56 396.55,-35.04 501.66,-74.85 103.52,-39.81 175.18,-114.67 214.99,-224.55 38.22,-108.29 57.33,-281.88 57.33,-522.36l0 -4739.44c0,-240.48 -19.11,-414.07 -57.33,-522.36 -39.81,-109.89 -111.48,-184.74 -214.99,-224.55 -105.11,-39.81 -270.74,-65.3 -501.66,-74.85l0 -191.11c264.37,19.11 652.95,28.67 1165.75,28.67 250.03,0 523.95,-3.19 823.35,-9.56 300.99,-6.37 506.43,-9.56 619.5,-9.56 500.06,0 923.68,78.04 1269.27,235.7 343.99,156.07 603.58,377.44 775.57,659.32 173.59,283.47 259.59,613.13 259.59,988.98 0,348.77 -78.04,684.8 -234.11,1008.09 -154.48,323.29 -420.44,592.43 -794.69,807.43 -374.25,215 -869.54,321.7 -1485.85,321.7l-737.35 0 0 1721.55zm643.39 -1912.66c622.69,0 1052.68,-165.63 1293.15,-498.47 238.88,-332.85 358.33,-781.94 358.33,-1344.12 0,-410.88 -52.56,-748.5 -157.67,-1012.87 -106.7,-264.36 -275.51,-461.84 -506.43,-594.02 -232.51,-132.18 -539.87,-199.07 -922.09,-199.07 -199.07,0 -347.18,22.3 -447.51,68.48 -98.74,44.59 -167.22,124.22 -205.44,238.88 -36.63,116.26 -55.74,286.66 -55.74,514.4l0 2826.78 643.39 0z"/>
  <path id="_1" class="fil2 str1" d="M3455.15 9031.26c0,240.48 25.48,414.07 74.85,522.36 49.37,109.89 140.15,184.74 270.74,224.55 130.59,39.81 337.62,65.3 619.5,74.85l0 191.11c-329.66,-19.11 -797.87,-28.67 -1403.04,-28.67 -547.84,0 -955.53,9.56 -1223.08,28.67l0 -191.11c230.92,-9.56 396.55,-35.04 501.66,-74.85 103.52,-39.81 175.18,-114.67 214.99,-224.55 38.22,-108.29 57.33,-281.88 57.33,-522.36l0 -4739.44c0,-240.48 -19.11,-414.07 -57.33,-522.36 -39.81,-109.89 -111.48,-184.74 -214.99,-224.55 -105.11,-39.81 -270.74,-65.3 -501.66,-74.85l0 -191.11c264.37,19.11 652.95,28.67 1165.75,28.67 250.03,0 523.95,-3.19 823.35,-9.56 300.99,-6.37 506.43,-9.56 619.5,-9.56 500.06,0 923.68,78.04 1269.27,235.7 343.99,156.07 603.58,377.44 775.57,659.32 173.59,283.47 259.59,613.13 259.59,988.98 0,348.77 -78.04,684.8 -234.11,1008.09 -154.48,323.29 -420.44,592.43 -794.69,807.43 -374.25,215 -869.54,321.7 -1485.85,321.7l-737.35 0 0 1721.55zm643.39 -1912.66c622.69,0 1052.68,-165.63 1293.15,-498.47 238.88,-332.85 358.33,-781.94 358.33,-1344.12 0,-410.88 -52.56,-748.5 -157.67,-1012.87 -106.7,-264.36 -275.51,-461.84 -506.43,-594.02 -232.51,-132.18 -539.87,-199.07 -922.09,-199.07 -199.07,0 -347.18,22.3 -447.51,68.48 -98.74,44.59 -167.22,124.22 -205.44,238.88 -36.63,116.26 -55.74,286.66 -55.74,514.4l0 2826.78 643.39 0z"/>
  <path class="fil3" d="M10530.87 9198.98c154.76,387.9 727.98,588.93 1008.35,601.46l0 187.96c-256.87,-18.8 -1018.19,-28.19 -1434.83,-28.19 -535.7,0 -1035.77,9.39 -1302.05,28.19l0 -187.96c239.65,-9.39 261.74,-39.17 363.55,-87.71 101.8,-48.55 153.5,-136.27 153.5,-261.58 0,-106.51 -34.58,-254.34 -109.65,-440.14l-1636.58 -4049.74 -270.72 704.02 -185.72 -75.99 904.45 -2300.1 151.93 0 2357.78 5909.78z"/>
  <g style="clip-path:url(#id0)">
   <g id="_3144590429024">
    <g>
    </g>
    <g style="clip-path:url(#id1)">
     <image x="8145.42" y="6974.42" width="2361.61" height="1472.81" xlink:href="05 PA_Logo_Master_1_Images\05 PA_Logo_Master_1_ImgID1.png"/>
    </g>
    <g style="clip-path:url(#id2)">
    </g>
    <g>
    </g>
    <g style="clip-path:url(#id3)">
     <image x="8145.42" y="6974.42" width="2361.61" height="1472.81" xlink:href="05 PA_Logo_Master_1_Images\05 PA_Logo_Master_1_ImgID2.png"/>
    </g>
    <g style="clip-path:url(#id4)">
    </g>
   </g>
  </g>
  <path class="fil2" d="M10530.87 9198.98c154.76,387.9 727.98,588.93 1008.35,601.46l0 187.96c-256.87,-18.8 -1018.19,-28.19 -1434.83,-28.19 -535.7,0 -1035.77,9.39 -1302.05,28.19l0 -187.96c239.65,-9.39 261.74,-39.17 363.55,-87.71 101.8,-48.55 153.5,-136.27 153.5,-261.58 0,-106.51 -34.58,-254.34 -109.65,-440.14l-1636.58 -4049.74 -270.72 704.02 -185.72 -75.99 904.45 -2300.1 151.93 0 2357.78 5909.78z"/>
  <path class="fil4" d="M4966.94 9912.19l1.9 75.9c2668.97,591.33 1977.01,-2976 3079.73,-2672.55l0.99 -121.35c-2679.63,-424.96 -1854.73,2553.63 -3082.62,2718z"/>
  <g style="clip-path:url(#id5)">
   <g id="_3144590426624">
    <g>
    </g>
    <g style="clip-path:url(#id6)">
     <image x="5553.87" y="7173.37" width="2368.22" height="2774.48" xlink:href="05 PA_Logo_Master_1_Images\05 PA_Logo_Master_1_ImgID3.png"/>
    </g>
    <g style="clip-path:url(#id7)">
    </g>
    <g>
    </g>
    <g style="clip-path:url(#id8)">
     <image x="5553.87" y="7173.37" width="2368.22" height="2774.48" xlink:href="05 PA_Logo_Master_1_Images\05 PA_Logo_Master_1_ImgID4.png"/>
    </g>
    <g style="clip-path:url(#id9)">
    </g>
   </g>
  </g>
  <path class="fil5" d="M4966.94 9912.19l1.9 75.9c2668.97,591.33 1977.01,-2976 3079.73,-2672.55l0.99 -121.35c-2679.63,-424.96 -1854.73,2553.63 -3082.62,2718z"/>
 </g>
</svg>
